<!DOCTYPE svg PUBLIC "-//W3C//DTD SVG 20010904//EN" "http://www.w3.org/TR/2001/REC-SVG-20010904/DTD/svg10.dtd">
<svg version="1.0" xmlns="http://www.w3.org/2000/svg" width="251px" height="251px" viewBox="0 0 2510 2510" preserveAspectRatio="xMidYMid meet">
<g id="layer101" fill="#332f2f" stroke="none">
<path d="M1091 2444 c-367 -50 -692 -282 -868 -619 -38 -73 -98 -248 -113 -330 -56 -313 16 -635 205 -919 63 -94 103 -138 200 -222 131 -113 228 -173 371 -228 273 -106 563 -111 843 -16 160 54 206 97 206 193 0 57 -1 59 -52 108 -65 62 -88 63 -222 9 -157 -63 -246 -82 -391 -82 -134 0 -212 14 -328 58 -250 94 -451 287 -558 535 -40 94 -51 133 -69 247 -19 111 -19 169 0 293 50 331 247 599 553 753 157 78 409 115 576 85 110 -20 282 -79 361 -124 222 -127 417 -368 489 -605 9 -30 21 -68 26 -85 19 -64 31 -252 20 -342 -8 -70 -7 -90 4 -101 20 -20 31 2 45 85 56 351 -75 726 -344 988 -114 112 -250 200 -391 253 -96 37 -145 49 -274 68 -115 16 -155 16 -289 -2z"/>
</g>
<g id="layer102" fill="#5f5c5c" stroke="none">
<path d="M1145 2450 c-33 -5 -1 -7 95 -7 103 0 132 2 100 8 -53 9 -125 9 -195 -1z"/>
<path d="M1005 2430 l-30 -8 30 0 c17 0 41 4 55 8 l25 8 -25 0 c-14 0 -38 -4 -55 -8z"/>
<path d="M1420 2430 c14 -4 39 -8 55 -8 29 0 29 0 5 8 -14 4 -38 8 -55 8 -29 0 -29 0 -5 -8z"/>
<path d="M870 2391 c-95 -36 -190 -83 -260 -132 -67 -45 -135 -105 -103 -89 12 5 25 15 28 20 30 48 344 210 407 210 9 0 20 5 23 10 10 16 -15 11 -95 -19z"/>
<path d="M1525 2410 c3 -5 14 -10 24 -10 9 0 46 -11 81 -25 36 -14 69 -24 74 -22 10 3 -156 67 -175 67 -6 0 -7 -4 -4 -10z"/>
<path d="M1720 2346 c0 -7 113 -66 117 -62 4 4 -102 66 -112 66 -3 0 -5 -2 -5 -4z"/>
<path d="M1238 2323 c17 -2 47 -2 65 0 17 2 3 4 -33 4 -36 0 -50 -2 -32 -4z"/>
<path d="M1125 2315 c-5 -1 -37 -8 -70 -15 -33 -7 -64 -18 -70 -23 -7 -7 -4 -8 8 -4 9 4 54 14 100 23 45 9 84 18 86 20 5 5 -39 4 -54 -1z"/>
<path d="M1450 2309 c51 -12 180 -46 207 -56 12 -4 15 -3 8 4 -5 5 -30 15 -55 22 -25 8 -56 17 -70 22 -14 4 -50 10 -80 13 l-55 5 45 -10z"/>
<path d="M1850 2273 c0 -5 15 -17 33 -28 17 -10 51 -34 75 -53 23 -19 42 -30 42 -26 -1 18 -150 124 -150 107z"/>
<path d="M870 2237 c-62 -31 -165 -94 -196 -120 -100 -82 -274 -298 -274 -338 0 -8 15 11 32 41 107 187 313 364 507 435 23 9 28 14 16 14 -11 0 -49 -14 -85 -32z"/>
<path d="M1765 2205 c50 -24 116 -66 147 -92 153 -128 162 -134 88 -64 -41 39 -99 87 -127 107 -61 40 -166 94 -185 94 -7 0 28 -20 77 -45z"/>
<path d="M412 2095 c-60 -64 -168 -213 -160 -221 4 -4 68 82 68 92 0 10 73 97 119 142 24 23 41 45 39 48 -3 2 -33 -25 -66 -61z"/>
<path d="M2010 2158 c0 -4 28 -35 61 -70 59 -61 146 -184 190 -269 11 -23 23 -38 26 -36 13 14 -127 224 -199 301 -42 44 -77 78 -78 74z"/>
<path d="M2091 1944 c37 -41 127 -177 145 -220 8 -20 18 -34 21 -31 5 5 -2 21 -41 92 -32 59 -121 179 -136 183 -9 3 -4 -8 11 -24z"/>
<path d="M216 1811 c-48 -94 -131 -369 -97 -321 6 8 11 26 11 39 0 41 50 180 97 275 13 26 22 50 19 53 -2 3 -16 -18 -30 -46z"/>
<path d="M2290 1760 c0 -9 4 -20 8 -25 7 -8 31 -69 48 -124 2 -8 7 -12 9 -9 6 6 -27 105 -49 144 -8 16 -15 22 -16 14z"/>
<path d="M371 1717 c-12 -25 -21 -52 -20 -59 0 -7 11 11 25 41 13 30 22 56 20 59 -3 2 -14 -16 -25 -41z"/>
<path d="M337 1633 c-4 -3 -7 -18 -6 -32 1 -26 1 -25 10 3 9 31 7 41 -4 29z"/>
<path d="M2284 1615 c4 -11 14 -44 22 -74 16 -62 30 -84 19 -31 -10 51 -28 103 -39 115 -5 6 -6 3 -2 -10z"/>
<path d="M2362 1565 c0 -16 3 -39 8 -50 8 -18 9 -18 8 5 0 14 -4 36 -8 50 -8 24 -8 24 -8 -5z"/>
<path d="M316 1549 c-17 -92 -26 -166 -26 -230 0 -63 4 -100 27 -218 2 -13 6 -21 8 -19 3 2 -2 45 -10 94 -18 112 -18 174 0 294 8 52 12 96 10 98 -2 3 -6 -6 -9 -19z"/>
<path d="M2385 1305 c0 -103 3 -170 7 -149 4 21 7 89 7 149 0 61 -3 128 -7 149 -4 21 -7 -46 -7 -149z"/>
<path d="M95 1364 c-4 -53 -3 -133 2 -178 10 -77 10 -72 12 97 0 97 -1 177 -3 177 -2 0 -7 -43 -11 -96z"/>
<path d="M2337 1380 c3 -47 7 -87 9 -89 8 -9 2 125 -6 149 -5 15 -6 -10 -3 -60z"/>
<path d="M2338 1135 c-7 -75 3 -105 28 -84 8 6 14 21 13 33 0 19 -1 19 -12 -4 -10 -22 -12 -17 -17 50 l-5 75 -7 -70z"/>
<path d="M116 1038 c9 -57 14 -61 14 -10 0 22 -5 44 -10 47 -7 4 -8 -8 -4 -37z"/>
<path d="M330 1054 c0 -32 57 -170 67 -161 2 3 -1 16 -8 29 -7 12 -23 52 -36 88 -12 36 -23 55 -23 44z"/>
<path d="M130 977 c0 -17 43 -138 47 -133 3 3 -2 23 -11 46 -9 22 -16 49 -16 60 0 10 -4 22 -10 25 -5 3 -10 4 -10 2z"/>
<path d="M400 872 c0 -15 73 -132 83 -132 4 0 -12 30 -35 68 -50 81 -48 78 -48 64z"/>
<path d="M180 824 c0 -16 88 -177 132 -244 54 -80 98 -136 98 -125 0 10 -73 109 -82 113 -5 2 -8 8 -8 13 0 5 -15 32 -33 61 -19 29 -49 83 -67 121 -30 62 -40 77 -40 61z"/>
<path d="M490 723 c0 -4 20 -30 45 -58 25 -27 45 -45 45 -40 -1 12 -90 110 -90 98z"/>
<path d="M590 615 c0 -8 12 -19 80 -76 67 -56 139 -101 203 -128 79 -34 78 -23 0 14 -88 41 -167 92 -233 152 -27 25 -50 42 -50 38z"/>
<path d="M1657 419 c-53 -22 -130 -49 -170 -59 -55 -15 -62 -19 -27 -15 42 5 87 17 135 35 45 18 101 42 119 52 11 6 45 10 75 10 50 0 58 -4 92 -39 21 -21 38 -46 39 -55 0 -9 5 -20 11 -24 29 -18 -7 46 -51 89 -62 60 -89 61 -223 6z"/>
<path d="M420 445 c0 -8 7 -15 95 -91 39 -33 93 -76 120 -96 64 -45 185 -112 191 -105 3 2 -19 17 -48 32 -89 46 -209 130 -285 200 -40 37 -73 64 -73 60z"/>
<path d="M953 384 c12 -13 78 -33 127 -39 39 -4 37 -2 -20 13 -36 10 -76 22 -90 26 -14 5 -22 5 -17 0z"/>
<path d="M1165 329 c26 -10 184 -10 210 0 12 5 -32 9 -105 8 -72 0 -117 -3 -105 -8z"/>
<path d="M1920 259 c-6 -22 -20 -49 -31 -60 -12 -12 -18 -23 -16 -25 9 -9 57 62 63 94 9 46 -3 39 -16 -9z"/>
<path d="M1820 160 c-16 -10 -73 -34 -104 -44 -10 -4 -16 -9 -13 -12 5 -5 157 54 157 62 0 7 -24 3 -40 -6z"/>
<path d="M840 147 c0 -8 172 -68 183 -64 6 2 -25 15 -69 29 -43 15 -87 30 -96 33 -10 4 -18 5 -18 2z"/>
<path d="M1635 90 l-20 -9 20 0 c11 0 27 4 35 9 13 9 13 10 0 9 -8 0 -24 -4 -35 -9z"/>
<path d="M1071 71 c14 -5 56 -11 95 -14 40 -4 58 -3 44 2 -14 4 -56 11 -95 14 -40 3 -59 2 -44 -2z"/>
<path d="M1505 69 c-38 -5 -74 -11 -80 -14 -18 -9 145 6 168 15 20 8 20 9 2 8 -11 0 -51 -5 -90 -9z"/>
</g>
<g id="layer103" fill="#827f7f" stroke="none">
<path d="M1218 2453 c17 -2 47 -2 65 0 17 2 3 4 -33 4 -36 0 -50 -2 -32 -4z"/>
<path d="M1113 2443 c9 -2 25 -2 35 0 9 3 1 5 -18 5 -19 0 -27 -2 -17 -5z"/>
<path d="M420 2103 l-55 -58 58 55 c31 30 57 56 57 57 0 8 -10 -1 -60 -54z"/>
<path d="M2060 2105 c30 -30 57 -55 59 -55 3 0 -19 25 -49 55 -30 30 -57 55 -59 55 -3 0 19 -25 49 -55z"/>
<path d="M1980 2055 c19 -19 36 -35 39 -35 3 0 -10 16 -29 35 -19 19 -36 35 -39 35 -3 0 10 -16 29 -35z"/>
<path d="M103 1425 c0 -22 2 -30 4 -17 2 12 2 30 0 40 -3 9 -5 -1 -4 -23z"/>
<path d="M2393 1390 c0 -25 2 -35 4 -22 2 12 2 32 0 45 -2 12 -4 2 -4 -23z"/>
<path d="M2343 1335 c0 -27 2 -38 4 -22 2 15 2 37 0 50 -2 12 -4 0 -4 -28z"/>
<path d="M94 1280 c0 -52 1 -74 3 -47 2 26 2 68 0 95 -2 26 -3 4 -3 -48z"/>
<path d="M2393 1215 c0 -22 2 -30 4 -17 2 12 2 30 0 40 -3 9 -5 -1 -4 -23z"/>
<path d="M2343 1155 c0 -27 2 -38 4 -22 2 15 2 37 0 50 -2 12 -4 0 -4 -28z"/>
<path d="M102 1140 c0 -19 2 -27 5 -17 2 9 2 25 0 35 -3 9 -5 1 -5 -18z"/>
<path d="M2331 1085 c-1 -29 19 -48 36 -34 7 7 13 16 13 22 0 6 -6 2 -14 -9 -12 -16 -15 -16 -19 -4 -3 8 -8 22 -10 30 -4 10 -6 8 -6 -5z"/>
<path d="M520 687 c0 -2 15 -16 33 -33 l32 -29 -29 33 c-28 30 -36 37 -36 29z"/>
<path d="M1188 333 c12 -2 30 -2 40 0 9 3 -1 5 -23 4 -22 0 -30 -2 -17 -4z"/>
<path d="M1308 333 c12 -2 30 -2 40 0 9 3 -1 5 -23 4 -22 0 -30 -2 -17 -4z"/>
<path d="M1283 43 c26 -2 67 -2 90 0 23 2 2 3 -48 3 -49 0 -68 -1 -42 -3z"/>
</g>
<g id="layer104" fill="#f15555" stroke="none">
<path d="M2050 914 c-88 -38 -143 -125 -143 -224 0 -102 55 -191 142 -228 88 -37 210 -7 271 66 131 159 20 403 -182 402 -29 -1 -69 -8 -88 -16z m165 -89 c46 -27 66 -52 84 -106 38 -116 -91 -245 -209 -210 -51 15 -97 55 -115 98 -64 153 99 301 240 218z"/>
</g>
<g id="layer105" fill="#b88b8b" stroke="none">
<path d="M2373 690 c0 -25 2 -35 4 -22 2 12 2 32 0 45 -2 12 -4 2 -4 -23z"/>
</g>


</svg>